<svg version="1.1" id="Layer_1" xmlns="http://www.w3.org/2000/svg" xmlns:xlink="http://www.w3.org/1999/xlink" x="0px" y="0px"
	 width="100%" viewBox="0 0 257 262" enable-background="new 0 0 257 262" xml:space="preserve">
<path fill="#FCFDFE" opacity="1.000000" stroke="none" 
	d="
M258.000000,2.000000       
	C258.000000,88.951103 258.000000,175.902206 258.000000,262.926636 
	C172.430435,262.926636 86.860794,262.926636 1.000000,262.926636 
	C1.000000,176.312653 1.000000,89.624985 1.219353,2.360689 
	C1.712764,1.584970 1.899862,1.323615 2.000000,1.000000 
	C86.687561,1.000000 171.375122,1.000000 256.639099,1.219438 
	C257.415283,1.712203 257.676788,1.899244 258.000000,2.000000 
M243.199066,169.499710 
	C243.192978,145.000595 243.031265,120.500038 243.259705,96.003105 
	C243.347397,86.600334 239.341721,80.365379 231.297546,75.823822 
	C214.915955,66.575150 198.756882,56.932983 182.478867,47.499989 
	C172.682953,41.823330 162.976440,35.960548 152.911072,30.803389 
	C150.438629,29.536594 145.554398,29.466190 143.864029,31.058815 
	C141.675934,33.120396 140.875214,37.375374 140.753082,40.732430 
	C140.588104,45.267464 144.487640,47.461437 147.984634,49.495567 
	C171.297012,63.055920 194.594681,76.641953 217.961136,90.108620 
	C222.263962,92.588455 224.315826,95.680885 224.266953,100.909180 
	C224.031754,126.072754 223.989395,151.241302 224.259064,176.404007 
	C224.319885,182.081207 222.059265,185.256180 217.391724,187.868774 
	C197.200104,199.170853 177.159576,210.743408 156.933792,221.983124 
	C154.751129,223.196060 151.598343,223.598267 149.110184,223.159485 
	C139.909088,221.536911 131.797089,225.967346 129.004303,234.682617 
	C126.381172,242.868469 130.514725,251.738815 138.398041,254.840927 
	C146.802917,258.148285 156.124344,255.384369 159.273956,247.571426 
	C161.251236,242.666580 164.723297,240.345627 168.767868,238.022186 
	C189.700134,225.997513 210.627197,213.963638 231.527298,201.883194 
	C239.330734,197.372726 243.917404,190.993881 243.217560,181.495651 
	C242.948914,177.849579 243.190125,174.165939 243.199066,169.499710 
M35.194065,173.864639 
	C35.207233,148.214432 35.285137,122.563965 35.180733,96.914246 
	C35.159000,91.575539 36.877853,87.806824 41.698036,85.060860 
	C63.237717,72.790146 84.629837,60.260448 106.164406,47.980633 
	C107.993668,46.937523 110.562752,46.442764 112.648193,46.725498 
	C122.542252,48.066864 129.914169,42.784531 132.001190,32.463722 
	C133.613388,24.490959 127.833427,16.501902 118.809280,14.229856 
	C110.619873,12.167975 102.340858,17.418222 99.431358,25.996693 
	C98.629082,28.362141 96.818787,30.976048 94.724869,32.222263 
	C72.425041,45.494198 50.024864,58.600323 27.538778,71.555031 
	C19.673830,76.086189 16.048046,82.478279 16.104935,91.565163 
	C16.274897,118.713394 16.577642,145.873047 15.959752,173.008453 
	C15.680021,185.293228 20.609140,192.871780 31.100370,198.560760 
	C48.061260,207.758026 64.594215,217.745010 81.298569,227.414581 
	C89.363091,232.082840 97.382301,236.829895 105.470726,241.456131 
	C108.904594,243.420166 112.715614,244.946198 116.144432,241.924271 
	C119.615158,238.865463 120.224571,234.409439 118.366859,230.466415 
	C117.050926,227.673294 114.538490,224.944473 111.863869,223.369019 
	C88.212456,209.437439 64.352448,195.859619 40.724483,181.889084 
	C38.323952,180.469711 37.042622,177.157440 35.194065,173.864639 
M75.973083,132.562515 
	C74.673645,135.072235 73.016388,137.471725 72.197647,140.129532 
	C71.629990,141.972244 71.557205,144.605133 72.515228,146.061295 
	C73.180382,147.072296 76.127724,147.270157 77.793793,146.833359 
	C116.494576,136.687027 155.091812,126.135979 193.879211,116.336723 
	C203.452560,113.918114 209.537186,108.856239 213.000183,100.122108 
	C213.642181,98.502853 213.783783,95.850739 212.869095,94.687805 
	C211.987411,93.566849 209.275986,93.081779 207.650848,93.477432 
	C195.875946,96.344139 184.161880,99.464478 172.448807,102.580620 
	C145.336288,109.793617 118.229652,117.028923 91.134171,124.305580 
	C85.683388,125.769424 80.073669,127.038017 75.973083,132.562515 
M125.236115,143.809570 
	C105.310913,149.112686 85.488045,154.855804 65.415169,159.523926 
	C56.082081,161.694412 51.810173,167.779770 48.701405,175.575287 
	C48.139038,176.985489 48.504627,179.500336 49.474129,180.566299 
	C50.328449,181.505646 52.717201,181.576935 54.268948,181.257401 
	C59.309921,180.219376 64.295906,178.893738 69.270813,177.558655 
	C104.262146,168.168289 139.175827,158.474976 174.278900,149.523911 
	C183.344315,147.212280 187.629013,141.511292 190.449051,133.722641 
	C192.077454,129.225204 189.555176,126.751694 184.830811,127.990608 
	C165.212189,133.135406 145.607819,138.334610 125.236115,143.809570 
M80.125237,104.866859 
	C79.405983,107.768028 78.368988,110.633820 78.041100,113.578568 
	C77.534996,118.123734 79.674767,119.648102 84.102455,118.480789 
	C107.236679,112.381691 130.377945,106.309357 153.519073,100.236435 
	C161.879364,98.042435 165.711090,93.188988 165.801163,84.629280 
	C165.844421,80.516891 163.814468,78.718414 160.023682,79.716423 
	C135.760742,86.104172 111.482948,92.439590 87.291336,99.088074 
	C84.729317,99.792175 82.694420,102.414291 80.125237,104.866859 
M173.765762,161.377396 
	C152.398148,167.014465 131.023438,172.624847 109.666786,178.303177 
	C102.248894,180.275452 98.044434,186.209381 98.188446,194.195969 
	C98.267616,198.586578 99.848801,199.615234 104.364563,198.437210 
	C127.189293,192.482956 150.013718,186.526886 172.860046,180.656311 
	C181.800858,178.358871 184.951843,174.870453 185.982391,165.559326 
	C186.537918,160.540131 184.323776,158.634354 179.372726,159.879547 
	C177.760834,160.284958 176.154617,160.712875 173.765762,161.377396 
z"/>
<path fill="#F7F2FF" opacity="1.000000" stroke="none" 
	d="
M1.500000,1.000000 
	C1.899862,1.323615 1.712764,1.584970 1.219353,1.892032 
	C1.000000,1.666667 1.000000,1.333333 1.500000,1.000000 
z"/>
<path fill="#F7F2FF" opacity="1.000000" stroke="none" 
	d="
M258.000000,1.500000 
	C257.676788,1.899244 257.415283,1.712203 257.107758,1.219438 
	C257.333344,1.000000 257.666656,1.000000 258.000000,1.500000 
z"/>
<path fill="#47C2CA" opacity="1.000000" stroke="none" 
	d="
M243.199036,169.999573 
	C243.190125,174.165939 242.948914,177.849579 243.217560,181.495651 
	C243.917404,190.993881 239.330734,197.372726 231.527298,201.883194 
	C210.627197,213.963638 189.700134,225.997513 168.767868,238.022186 
	C164.723297,240.345627 161.251236,242.666580 159.273956,247.571426 
	C156.124344,255.384369 146.802917,258.148285 138.398041,254.840927 
	C130.514725,251.738815 126.381172,242.868469 129.004303,234.682617 
	C131.797089,225.967346 139.909088,221.536911 149.110184,223.159485 
	C151.598343,223.598267 154.751129,223.196060 156.933792,221.983124 
	C177.159576,210.743408 197.200104,199.170853 217.391724,187.868774 
	C222.059265,185.256180 224.319885,182.081207 224.259064,176.404007 
	C223.989395,151.241302 224.031754,126.072754 224.266953,100.909180 
	C224.315826,95.680885 222.263962,92.588455 217.961136,90.108620 
	C194.594681,76.641953 171.297012,63.055920 147.984634,49.495567 
	C144.487640,47.461437 140.588104,45.267464 140.753082,40.732430 
	C140.875214,37.375374 141.675934,33.120396 143.864029,31.058815 
	C145.554398,29.466190 150.438629,29.536594 152.911072,30.803389 
	C162.976440,35.960548 172.682953,41.823330 182.478867,47.499989 
	C198.756882,56.932983 214.915955,66.575150 231.297546,75.823822 
	C239.341721,80.365379 243.347397,86.600334 243.259705,96.003105 
	C243.031265,120.500038 243.192978,145.000595 243.199036,169.999573 
M152.386368,232.120575 
	C151.563843,231.564682 150.791550,230.907852 149.910614,230.469269 
	C144.265106,227.658630 137.390274,229.967468 134.766632,235.512604 
	C132.453888,240.400681 134.967789,247.048019 140.014816,249.390060 
	C145.688156,252.022720 151.688736,249.760574 154.490723,243.907822 
	C156.447845,239.819855 154.981003,236.196548 152.386368,232.120575 
z"/>
<path fill="#46C2CA" opacity="1.000000" stroke="none" 
	d="
M35.217991,174.294113 
	C37.042622,177.157440 38.323952,180.469711 40.724483,181.889084 
	C64.352448,195.859619 88.212456,209.437439 111.863869,223.369019 
	C114.538490,224.944473 117.050926,227.673294 118.366859,230.466415 
	C120.224571,234.409439 119.615158,238.865463 116.144432,241.924271 
	C112.715614,244.946198 108.904594,243.420166 105.470726,241.456131 
	C97.382301,236.829895 89.363091,232.082840 81.298569,227.414581 
	C64.594215,217.745010 48.061260,207.758026 31.100370,198.560760 
	C20.609140,192.871780 15.680021,185.293228 15.959752,173.008453 
	C16.577642,145.873047 16.274897,118.713394 16.104935,91.565163 
	C16.048046,82.478279 19.673830,76.086189 27.538778,71.555031 
	C50.024864,58.600323 72.425041,45.494198 94.724869,32.222263 
	C96.818787,30.976048 98.629082,28.362141 99.431358,25.996693 
	C102.340858,17.418222 110.619873,12.167975 118.809280,14.229856 
	C127.833427,16.501902 133.613388,24.490959 132.001190,32.463722 
	C129.914169,42.784531 122.542252,48.066864 112.648193,46.725498 
	C110.562752,46.442764 107.993668,46.937523 106.164406,47.980633 
	C84.629837,60.260448 63.237717,72.790146 41.698036,85.060860 
	C36.877853,87.806824 35.159000,91.575539 35.180733,96.914246 
	C35.285137,122.563965 35.207233,148.214432 35.217991,174.294113 
M105.660027,34.346607 
	C106.315308,35.296463 106.883553,36.322891 107.640488,37.183315 
	C111.524315,41.598106 116.677521,42.350845 121.400185,39.254894 
	C125.829735,36.351078 127.305817,30.658278 124.925774,25.657761 
	C122.665283,20.908426 117.695480,18.430132 113.144135,19.782604 
	C106.787086,21.671659 104.222656,26.215736 105.660027,34.346607 
z"/>
<path fill="#46C2CA" opacity="1.000000" stroke="none" 
	d="
M76.193604,132.273773 
	C80.073669,127.038017 85.683388,125.769424 91.134171,124.305580 
	C118.229652,117.028923 145.336288,109.793617 172.448807,102.580620 
	C184.161880,99.464478 195.875946,96.344139 207.650848,93.477432 
	C209.275986,93.081779 211.987411,93.566849 212.869095,94.687805 
	C213.783783,95.850739 213.642181,98.502853 213.000183,100.122108 
	C209.537186,108.856239 203.452560,113.918114 193.879211,116.336723 
	C155.091812,126.135979 116.494576,136.687027 77.793793,146.833359 
	C76.127724,147.270157 73.180382,147.072296 72.515228,146.061295 
	C71.557205,144.605133 71.629990,141.972244 72.197647,140.129532 
	C73.016388,137.471725 74.673645,135.072235 76.193604,132.273773 
z"/>
<path fill="#47C2CA" opacity="1.000000" stroke="none" 
	d="
M125.617172,143.661713 
	C145.607819,138.334610 165.212189,133.135406 184.830811,127.990608 
	C189.555176,126.751694 192.077454,129.225204 190.449051,133.722641 
	C187.629013,141.511292 183.344315,147.212280 174.278900,149.523911 
	C139.175827,158.474976 104.262146,168.168289 69.270813,177.558655 
	C64.295906,178.893738 59.309921,180.219376 54.268948,181.257401 
	C52.717201,181.576935 50.328449,181.505646 49.474129,180.566299 
	C48.504627,179.500336 48.139038,176.985489 48.701405,175.575287 
	C51.810173,167.779770 56.082081,161.694412 65.415169,159.523926 
	C85.488045,154.855804 105.310913,149.112686 125.617172,143.661713 
z"/>
<path fill="#47C2CA" opacity="1.000000" stroke="none" 
	d="
M80.270111,104.506729 
	C82.694420,102.414291 84.729317,99.792175 87.291336,99.088074 
	C111.482948,92.439590 135.760742,86.104172 160.023682,79.716423 
	C163.814468,78.718414 165.844421,80.516891 165.801163,84.629280 
	C165.711090,93.188988 161.879364,98.042435 153.519073,100.236435 
	C130.377945,106.309357 107.236679,112.381691 84.102455,118.480789 
	C79.674767,119.648102 77.534996,118.123734 78.041100,113.578568 
	C78.368988,110.633820 79.405983,107.768028 80.270111,104.506729 
z"/>
<path fill="#47C2CA" opacity="1.000000" stroke="none" 
	d="
M174.155777,161.253937 
	C176.154617,160.712875 177.760834,160.284958 179.372726,159.879547 
	C184.323776,158.634354 186.537918,160.540131 185.982391,165.559326 
	C184.951843,174.870453 181.800858,178.358871 172.860046,180.656311 
	C150.013718,186.526886 127.189293,192.482956 104.364563,198.437210 
	C99.848801,199.615234 98.267616,198.586578 98.188446,194.195969 
	C98.044434,186.209381 102.248894,180.275452 109.666786,178.303177 
	C131.023438,172.624847 152.398148,167.014465 174.155777,161.253937 
z"/>
<path fill="#F6FAFB" opacity="1.000000" stroke="none" 
	d="
M152.643127,232.395187 
	C154.981003,236.196548 156.447845,239.819855 154.490723,243.907822 
	C151.688736,249.760574 145.688156,252.022720 140.014816,249.390060 
	C134.967789,247.048019 132.453888,240.400681 134.766632,235.512604 
	C137.390274,229.967468 144.265106,227.658630 149.910614,230.469269 
	C150.791550,230.907852 151.563843,231.564682 152.643127,232.395187 
z"/>
<path fill="#F6FAFB" opacity="1.000000" stroke="none" 
	d="
M105.499245,33.980297 
	C104.222656,26.215736 106.787086,21.671659 113.144135,19.782604 
	C117.695480,18.430132 122.665283,20.908426 124.925774,25.657761 
	C127.305817,30.658278 125.829735,36.351078 121.400185,39.254894 
	C116.677521,42.350845 111.524315,41.598106 107.640488,37.183315 
	C106.883553,36.322891 106.315308,35.296463 105.499245,33.980297 
z"/>
</svg>